HIERARCHY
ROOT Hips
{
	OFFSET -0.001795 -0.223333 0.028219
	CHANNELS 6 Xposition Yposition Zposition Zrotation Yrotation Xrotation 
	JOINT LeftUpLeg
	{
		OFFSET 0.069520 -0.091406 -0.006815
		CHANNELS 3 Zrotation Yrotation Xrotation
		JOINT LeftLeg
		{
			OFFSET 0.034277 -0.375199 -0.004496
			CHANNELS 3 Zrotation Yrotation Xrotation
			JOINT LeftFoot
			{
				OFFSET -0.013596 -0.397961 -0.043693
				CHANNELS 3 Zrotation Yrotation Xrotation
				JOINT LeftToe
				{
					OFFSET 0.026358 -0.055791 0.119288
					CHANNELS 3 Zrotation Yrotation Xrotation
					End Site
					{
						OFFSET 0.000000 0.000000 0.000000
					}
				}
			}
		}
	}
	JOINT RightUpLeg
	{
		OFFSET -0.067670 -0.090522 -0.004320
		CHANNELS 3 Zrotation Yrotation Xrotation
		JOINT RightLeg
		{
			OFFSET -0.038290 -0.382569 -0.008850
			CHANNELS 3 Zrotation Yrotation Xrotation
			JOINT RightFoot
			{
				OFFSET 0.015774 -0.398415 -0.042312
				CHANNELS 3 Zrotation Yrotation Xrotation
				JOINT RightToe
				{
					OFFSET -0.025372 -0.048144 0.123348
					CHANNELS 3 Zrotation Yrotation Xrotation
					End Site
					{
						OFFSET 0.000000 0.000000 0.000000
					}
				}
			}
		}
	}
	JOINT Spine
	{
		OFFSET -0.002533 0.108963 -0.026696
		CHANNELS 3 Zrotation Yrotation Xrotation
		JOINT Spine1
		{
			OFFSET 0.005487 0.135180 0.001092
			CHANNELS 3 Zrotation Yrotation Xrotation
			JOINT Spine2
			{
				OFFSET 0.001457 0.052922 0.025425
				CHANNELS 3 Zrotation Yrotation Xrotation
				JOINT Neck
				{
					OFFSET -0.002778 0.213870 -0.042857
					CHANNELS 3 Zrotation Yrotation Xrotation
					JOINT Head
					{
						OFFSET 0.005152 0.064970 0.051349
						CHANNELS 3 Zrotation Yrotation Xrotation
						End Site
						{
							OFFSET 0.000000 0.000000 0.000000
						}
					}
				}
				JOINT LeftShoulder
				{
					OFFSET 0.078845 0.121749 -0.034090
					CHANNELS 3 Zrotation Yrotation Xrotation
					JOINT LeftArm
					{
						OFFSET 0.090977 0.030469 -0.008868
						CHANNELS 3 Zrotation Yrotation Xrotation
						JOINT LeftForeArm
						{
							OFFSET 0.259612 -0.012772 -0.027456
							CHANNELS 3 Zrotation Yrotation Xrotation
							JOINT LeftHand
							{
								OFFSET 0.249234 0.008986 -0.001171
								CHANNELS 3 Zrotation Yrotation Xrotation
								End Site
								{
									OFFSET 0.000000 0.000000 0.000000
								}
							}
						}
					}
				}
				JOINT RightShoulder
				{
					OFFSET -0.081759 0.118833 -0.038615
					CHANNELS 3 Zrotation Yrotation Xrotation
					JOINT RightArm
					{
						OFFSET -0.096012 0.032551 -0.009143
						CHANNELS 3 Zrotation Yrotation Xrotation
						JOINT RightForeArm
						{
							OFFSET -0.253742 -0.013329 -0.021401
							CHANNELS 3 Zrotation Yrotation Xrotation
							JOINT RightHand
							{
								OFFSET -0.255298 0.007772 -0.005559
								CHANNELS 3 Zrotation Yrotation Xrotation
								End Site
								{
									OFFSET 0.000000 0.000000 0.000000
								}
							}
						}
					}
				}
			}
		}
	}
}
MOTION
Frames: 17
Frame Time: 0.050000
-0.017340 0.961332 0.015097 -2.389473 1.427883 -2.301668 6.759779 -0.008964 2.128938 -4.592594 0.474542 -2.327717 1.511077 7.333409 12.123655 0.000000 0.000000 0.000000 1.030056 0.110310 -1.138205 1.331638 -0.074216 2.704819 -6.785507 -17.657549 17.275433 0.000000 0.000000 0.000000 -1.330967 -0.143714 4.799370 3.132322 -0.118885 -24.461764 -1.940206 -1.152924 25.077166 9.056002 -4.159535 -23.134902 0.000000 0.000000 0.000000 -20.332288 -5.210089 1.752047 -51.190910 -10.582780 -3.858023 -8.242310 -18.575124 2.167432 0.000000 0.000000 0.000000 -10.251779 19.755969 5.153383 -14.245315 50.032310 -9.420673 -12.730752 12.101649 -0.844892 0.000000 0.000000 0.000000 
-0.017453 0.961428 0.014951 -2.329150 1.460649 -2.252515 6.694681 -0.012252 1.996164 -4.595760 0.475332 -2.194995 1.572271 7.424374 12.088057 0.000000 0.000000 0.000000 1.003884 0.124711 -1.268376 1.290327 -0.065099 2.840609 -6.956733 -17.930730 17.275628 0.000000 0.000000 0.000000 -1.428965 -0.137197 4.726180 3.110953 -0.106805 -24.606679 -1.861352 -1.068956 25.205828 9.175242 -4.145431 -23.579050 0.000000 0.000000 0.000000 -20.211887 -5.192664 1.719578 -51.492559 -10.544086 -3.888113 -8.070662 -18.188767 2.089598 0.000000 0.000000 0.000000 -10.485296 19.667748 5.088364 -14.310754 50.160962 -9.460718 -12.587608 11.573060 -0.783527 0.000000 0.000000 0.000000 
-0.017544 0.961565 0.014737 -2.293925 1.430185 -2.207572 6.570213 -0.011939 1.892202 -4.556307 0.472522 -2.146895 1.619750 7.497335 12.090107 0.000000 0.000000 0.000000 1.024558 0.139065 -1.401012 1.226707 -0.049653 3.081715 -7.085691 -18.142932 17.295564 0.000000 0.000000 0.000000 -1.432020 -0.133345 4.614844 3.065547 -0.095243 -24.605700 -1.819403 -0.954552 25.150321 9.396114 -4.179233 -24.064962 0.000000 0.000000 0.000000 -20.000285 -5.233752 1.721363 -51.795615 -10.551897 -3.890652 -8.065255 -17.849619 2.045860 0.000000 0.000000 0.000000 -10.642662 19.703222 5.066862 -14.505648 50.272360 -9.542915 -12.488893 11.102328 -0.733194 0.000000 0.000000 0.000000 
-0.017660 0.961736 0.014451 -2.263052 1.378675 -2.071692 6.460788 -0.018207 1.631887 -4.544638 0.472321 -2.107054 1.727815 7.627115 11.951688 0.000000 0.000000 0.000000 1.063539 0.157379 -1.571839 1.145427 -0.039330 3.039117 -7.242977 -18.402149 17.290613 0.000000 0.000000 0.000000 -1.467493 -0.128724 4.532870 2.993860 -0.072042 -24.720168 -1.695373 -0.888517 25.176869 9.506863 -4.174227 -24.445244 0.000000 0.000000 0.000000 -19.930832 -5.226687 1.713420 -51.993552 -10.521730 -3.911646 -7.907809 -17.575591 1.988179 0.000000 0.000000 0.000000 -10.928832 19.598885 4.997711 -14.673170 50.188710 -9.576613 -12.368307 11.096184 -0.722566 0.000000 0.000000 0.000000 
-0.017827 0.961660 0.014102 -2.289237 1.382839 -1.996949 6.484315 -0.018490 1.687212 -4.497794 0.466790 -2.288137 1.687027 7.566187 11.972131 0.000000 0.000000 0.000000 1.128160 0.160602 -1.603435 1.112493 -0.038812 2.898358 -7.366403 -18.603464 17.468603 0.000000 0.000000 0.000000 -1.472478 -0.128098 4.528027 3.044213 -0.077318 -24.855706 -1.691824 -0.792796 25.205824 9.664845 -4.223734 -24.616973 0.000000 0.000000 0.000000 -19.955081 -5.373582 1.768874 -51.907866 -10.463606 -3.930373 -8.008855 -17.587495 2.002473 0.000000 0.000000 0.000000 -11.134321 19.535555 4.943466 -15.012631 50.007623 -9.635500 -12.463728 11.321968 -0.750185 0.000000 0.000000 0.000000 
-0.018044 0.961675 0.013673 -2.318424 1.309769 -1.845627 6.454132 -0.024640 1.502988 -4.300921 0.450180 -2.391490 1.787521 7.769271 12.156103 0.000000 0.000000 0.000000 1.240919 0.163479 -1.636504 1.015770 -0.031373 2.691825 -7.439819 -18.729795 17.492268 0.000000 0.000000 0.000000 -1.457397 -0.126710 4.484517 3.072132 -0.083363 -24.880437 -1.637724 -0.797165 25.106103 9.796513 -4.248890 -24.917722 0.000000 0.000000 0.000000 -19.836737 -5.535121 1.871381 -51.862983 -10.303212 -3.985227 -8.266398 -17.775351 2.065367 0.000000 0.000000 0.000000 -11.580293 19.512807 4.878890 -15.479099 49.828868 -9.769799 -12.490295 11.597459 -0.777267 0.000000 0.000000 0.000000 
-0.018287 0.961584 0.013184 -2.344122 1.306667 -1.705042 6.432705 -0.034795 1.242467 -4.204287 0.441929 -2.340423 1.803304 7.789107 12.140345 0.000000 0.000000 0.000000 1.308368 0.170618 -1.704705 1.039859 -0.038774 2.547237 -7.562305 -18.927578 17.611442 0.000000 0.000000 0.000000 -1.417331 -0.125964 4.423103 2.982405 -0.060413 -24.904468 -1.675811 -0.889354 25.094731 9.890559 -4.274979 -25.156242 0.000000 0.000000 0.000000 -19.732837 -5.682850 1.979000 -51.688205 -10.222398 -4.012529 -8.348756 -18.086945 2.118382 0.000000 0.000000 0.000000 -11.902049 19.436365 4.822632 -15.983562 49.521877 -9.895391 -12.810100 12.081917 -0.851405 0.000000 0.000000 0.000000 
-0.018537 0.961598 0.012652 -2.431808 1.314936 -1.556744 6.458826 -0.043611 1.070794 -4.160095 0.437611 -2.395628 1.956565 8.081494 12.319895 0.000000 0.000000 0.000000 1.410760 0.170721 -1.710789 0.914228 -0.031866 2.226185 -7.615381 -19.013427 17.857230 0.000000 0.000000 0.000000 -1.396530 -0.127024 4.444693 2.945525 -0.043141 -25.075114 -1.675727 -1.070255 25.121449 10.055621 -4.306635 -25.665470 0.000000 0.000000 0.000000 -19.527009 -5.740896 2.060409 -51.746566 -10.131425 -4.060288 -8.489221 -18.368401 2.180861 0.000000 0.000000 0.000000 -12.395800 19.163307 4.705592 -16.774340 49.458881 -10.220784 -13.221824 11.868247 -0.872463 0.000000 0.000000 0.000000 
-0.018760 0.961543 0.012142 -2.517956 1.380982 -1.442754 6.502244 -0.050546 0.984155 -4.075466 0.429100 -2.521883 1.964622 8.087151 12.270215 0.000000 0.000000 0.000000 1.473484 0.169371 -1.701113 0.835433 -0.033369 1.856037 -7.532943 -18.875658 17.969480 0.000000 0.000000 0.000000 -1.312239 -0.131540 4.484377 2.905541 -0.030920 -25.107105 -1.777399 -1.140912 25.120718 10.090858 -4.321869 -25.729514 0.000000 0.000000 0.000000 -19.544174 -5.727377 2.057716 -51.292032 -10.165179 -4.025742 -8.587721 -18.924595 2.267481 0.000000 0.000000 0.000000 -12.586527 18.916204 4.626296 -17.643814 49.075354 -10.449486 -13.681593 11.645734 -0.895199 0.000000 0.000000 0.000000 
-0.018928 0.961402 0.011728 -2.570402 1.089355 -1.333298 6.468111 -0.049935 0.873554 -3.858405 0.413551 -2.607423 1.963509 8.133868 12.577348 0.000000 0.000000 0.000000 1.516415 0.159273 -1.625240 0.725066 -0.029355 1.525423 -7.365851 -18.641769 17.865517 0.000000 0.000000 0.000000 -1.189535 -0.134806 4.441281 2.731946 -0.001811 -24.931779 -1.779494 -0.929973 25.105130 10.206856 -4.404866 -25.595724 0.000000 0.000000 0.000000 -19.337654 -5.862788 2.127380 -51.041710 -9.875696 -4.128759 -8.988991 -19.942480 2.470087 0.000000 0.000000 0.000000 -12.576384 18.587405 4.555208 -18.347748 49.005497 -10.698704 -14.167456 11.339562 -0.907778 0.000000 0.000000 0.000000 
-0.019006 0.961193 0.011465 -2.632574 0.986989 -1.288411 6.558962 -0.051259 0.864935 -3.821764 0.411093 -2.582809 2.041464 8.182235 12.328407 0.000000 0.000000 0.000000 1.431101 0.143259 -1.485390 0.745982 -0.039143 1.295393 -7.276128 -18.508491 17.725565 0.000000 0.000000 0.000000 -1.097759 -0.138455 4.434785 2.636524 0.008303 -24.729981 -1.809213 -0.808840 25.111042 10.231532 -4.427796 -25.497224 0.000000 0.000000 0.000000 -19.359736 -5.850091 2.103998 -50.890608 -9.612517 -4.224609 -9.138618 -21.276693 2.680348 0.000000 0.000000 0.000000 -12.549752 18.287157 4.489107 -18.649167 48.813009 -10.742977 -14.613419 11.152703 -0.926888 0.000000 0.000000 0.000000 
-0.019035 0.960904 0.011334 -2.681342 0.780059 -1.305225 6.555623 -0.044584 0.952448 -3.677263 0.400628 -2.547279 2.109830 8.283940 12.384567 0.000000 0.000000 0.000000 1.398074 0.119302 -1.277501 0.669685 -0.037259 1.063292 -7.079110 -18.213053 17.527114 0.000000 0.000000 0.000000 -1.036771 -0.140470 4.421321 2.524442 0.025845 -24.568949 -1.806458 -0.625221 25.280905 10.246584 -4.420415 -25.564899 0.000000 0.000000 0.000000 -19.364665 -5.757879 2.046342 -50.895850 -9.013017 -4.484875 -9.683060 -23.258844 3.075297 0.000000 0.000000 0.000000 -12.549746 18.141367 4.448403 -18.640192 48.890767 -10.758161 -14.706096 10.920552 -0.910282 0.000000 0.000000 0.000000 
-0.018991 0.960755 0.011292 -2.726181 0.526383 -1.306486 6.544951 -0.041783 0.894207 -3.569220 0.393154 -2.340950 2.143719 8.254613 12.154119 0.000000 0.000000 0.000000 1.348474 0.100261 -1.111670 0.674015 -0.039162 1.008104 -6.789420 -17.758180 16.982361 0.000000 0.000000 0.000000 -0.813982 -0.149596 4.417113 2.190837 0.092310 -24.337720 -1.752390 -0.405650 25.288984 10.333260 -4.486881 -25.439802 0.000000 0.000000 0.000000 -19.526702 -5.819013 2.063107 -50.999606 -8.580793 -4.668743 -10.055809 -24.636305 3.361685 0.000000 0.000000 0.000000 -12.228385 18.127924 4.481830 -18.843621 49.229750 -10.935369 -14.192276 10.330064 -0.806970 0.000000 0.000000 0.000000 
-0.018873 0.960500 0.011342 -2.775419 0.279575 -1.435782 6.569386 -0.032274 1.010578 -3.527915 0.391119 -2.215176 2.054515 8.018321 11.884294 0.000000 0.000000 0.000000 1.242063 0.069233 -0.827880 0.728336 -0.046416 0.968315 -6.457827 -17.228291 16.597482 0.000000 0.000000 0.000000 -0.577239 -0.164368 4.541002 1.949871 0.130392 -23.977516 -1.769745 -0.140557 25.084103 10.145954 -4.437855 -24.930596 0.000000 0.000000 0.000000 -19.685482 -5.847606 2.034756 -51.103854 -8.249359 -4.781674 -10.534363 -25.911675 3.661407 0.000000 0.000000 0.000000 -11.797706 18.400386 4.596550 -19.404199 49.653296 -11.266278 -12.968505 9.258626 -0.613064 0.000000 0.000000 0.000000 
-0.018674 0.959960 0.011550 -2.700880 -0.003394 -1.456255 6.507280 -0.026085 0.992169 -3.608942 0.400426 -1.977097 2.222753 8.186540 11.583183 0.000000 0.000000 0.000000 1.063946 0.061290 -0.742298 0.736315 -0.038172 1.227575 -6.126493 -16.665296 15.827914 0.000000 0.000000 0.000000 -0.389105 -0.176307 4.647823 1.576524 0.213308 -23.895603 -1.715226 0.178572 25.050076 10.000985 -4.394953 -24.519394 0.000000 0.000000 0.000000 -19.421275 -5.759873 1.950603 -51.761147 -8.053233 -4.890930 -11.144045 -26.457523 3.893844 0.000000 0.000000 0.000000 -11.857858 18.332324 4.559869 -19.654906 50.377843 -11.567425 -11.566426 8.355851 -0.446023 0.000000 0.000000 0.000000 
-0.018376 0.959452 0.011966 -2.711950 -0.255372 -1.480720 6.401070 -0.013451 1.166164 -3.454537 0.388092 -1.956495 2.069640 7.823825 11.233450 0.000000 0.000000 0.000000 0.957120 0.030648 -0.453033 0.818503 -0.049171 1.171378 -6.039426 -16.517693 15.404079 0.000000 0.000000 0.000000 -0.092038 -0.190781 4.688161 1.221021 0.294848 -23.838889 -1.674396 0.426590 25.005247 9.739978 -4.316842 -23.979047 0.000000 0.000000 0.000000 -19.628700 -5.859971 1.978038 -51.687000 -7.785293 -4.989801 -11.381944 -26.764032 3.996035 0.000000 0.000000 0.000000 -11.647057 18.479259 4.614897 -20.046479 50.882482 -11.876027 -10.123397 7.934962 -0.333648 0.000000 0.000000 0.000000 
-0.017962 0.958995 0.012555 -2.684494 -0.450431 -1.565775 6.253546 -0.000638 1.320540 -3.470935 0.391017 -1.926143 2.102823 7.852335 11.207864 0.000000 0.000000 0.000000 0.977848 0.034740 -0.494840 0.704827 -0.021630 1.580946 -5.959545 -16.390370 15.200874 0.000000 0.000000 0.000000 -0.013145 -0.198311 4.793519 1.185561 0.297496 -23.740227 -1.620670 0.646856 24.977299 9.721896 -4.335931 -23.723245 0.000000 0.000000 0.000000 -19.923525 -6.000540 2.024532 -51.866176 -7.885516 -4.954275 -11.487237 -26.282803 3.938366 0.000000 0.000000 0.000000 -11.491781 18.526073 4.638178 -20.608847 51.580627 -12.328301 -9.061472 7.283542 -0.239656 0.000000 0.000000 0.000000 
